<?xml version="1.0" encoding="UTF-8" standalone="no"?>
<!DOCTYPE svg PUBLIC "-//W3C//DTD SVG 1.1//EN" "http://www.w3.org/Graphics/SVG/1.1/DTD/svg11.dtd">
<svg width="100%" height="100%" viewBox="0 0 1135 1142" version="1.1" xmlns="http://www.w3.org/2000/svg" xmlns:xlink="http://www.w3.org/1999/xlink" xml:space="preserve" xmlns:serif="http://www.serif.com/" style="fill-rule:evenodd;clip-rule:evenodd;stroke-linecap:round;stroke-linejoin:round;stroke-miterlimit:1.5;">
    <path d="M228.682,387.716c12.767,2.287 21.275,14.508 18.988,27.275c-2.287,12.767 -14.509,21.275 -27.275,18.988c-12.767,-2.287 -21.275,-14.509 -18.988,-27.275c2.287,-12.767 14.508,-21.275 27.275,-18.988Z" style="fill:#afdde9;stroke:#75c8dd;stroke-width:4.17px;"/>
    <path d="M205.179,675.219c12.767,2.287 21.275,14.509 18.988,27.275c-2.287,12.767 -14.509,21.275 -27.276,18.988c-12.766,-2.287 -21.275,-14.508 -18.988,-27.275c2.287,-12.767 14.509,-21.275 27.276,-18.988Z" style="fill:#afdde9;stroke:#75c8dd;stroke-width:4.17px;"/>
    <path d="M305.134,236.759c12.767,2.287 21.275,14.509 18.988,27.276c-2.286,12.767 -14.508,21.275 -27.275,18.988c-12.767,-2.287 -21.275,-14.509 -18.988,-27.276c2.287,-12.766 14.509,-21.275 27.275,-18.988Z" style="fill:#afdde9;stroke:#75c8dd;stroke-width:4.17px;"/>
    <path d="M252.185,317.285c12.767,2.287 21.276,14.509 18.989,27.275c-2.287,12.767 -14.509,21.275 -27.276,18.988c-12.767,-2.287 -21.275,-14.508 -18.988,-27.275c2.287,-12.767 14.509,-21.275 27.275,-18.988Z" style="fill:#afdde9;stroke:#75c8dd;stroke-width:4.17px;"/>
    <path d="M431.904,171.759c12.767,2.287 21.276,14.509 18.989,27.276c-2.287,12.767 -14.509,21.275 -27.276,18.988c-12.767,-2.287 -21.275,-14.509 -18.988,-27.276c2.287,-12.766 14.509,-21.275 27.275,-18.988Z" style="fill:#afdde9;stroke:#75c8dd;stroke-width:4.17px;"/>
    <path d="M371.578,186.759c12.767,2.287 21.275,14.509 18.988,27.276c-2.287,12.767 -14.509,21.275 -27.275,18.988c-12.767,-2.287 -21.275,-14.509 -18.989,-27.276c2.287,-12.766 14.509,-21.275 27.276,-18.988Z" style="fill:#afdde9;stroke:#75c8dd;stroke-width:4.17px;"/>
    <path d="M492.231,158.759c12.767,2.287 21.275,14.509 18.988,27.276c-2.287,12.767 -14.509,21.275 -27.275,18.988c-12.767,-2.287 -21.276,-14.509 -18.989,-27.276c2.287,-12.766 14.509,-21.275 27.276,-18.988Z" style="fill:#afdde9;stroke:#75c8dd;stroke-width:4.17px;"/>
    <path d="M552.557,154.759c12.767,2.287 21.275,14.509 18.988,27.276c-2.286,12.767 -14.508,21.275 -27.275,18.988c-12.767,-2.287 -21.275,-14.509 -18.988,-27.276c2.287,-12.766 14.509,-21.275 27.275,-18.988Z" style="fill:#afdde9;stroke:#75c8dd;stroke-width:4.17px;"/>
    <path d="M612.884,150.759c12.767,2.287 21.275,14.509 18.988,27.276c-2.287,12.767 -14.509,21.275 -27.276,18.988c-12.766,-2.287 -21.275,-14.509 -18.988,-27.276c2.287,-12.766 14.509,-21.275 27.276,-18.988Z" style="fill:#afdde9;stroke:#75c8dd;stroke-width:4.17px;"/>
    <path d="M673.21,146.759c12.767,2.287 21.275,14.509 18.988,27.276c-2.287,12.767 -14.508,21.275 -27.275,18.988c-12.767,-2.287 -21.275,-14.509 -18.988,-27.276c2.287,-12.766 14.509,-21.275 27.275,-18.988Z" style="fill:#afdde9;stroke:#75c8dd;stroke-width:4.17px;"/>
    <path d="M733.537,143.759c12.767,2.287 21.275,14.509 18.988,27.276c-2.287,12.767 -14.509,21.275 -27.276,18.988c-12.766,-2.287 -21.275,-14.509 -18.988,-27.276c2.287,-12.766 14.509,-21.275 27.276,-18.988Z" style="fill:#afdde9;stroke:#75c8dd;stroke-width:4.17px;"/>
    <path d="M793.863,140.759c12.767,2.287 21.275,14.509 18.988,27.276c-2.287,12.767 -14.508,21.275 -27.275,18.988c-12.767,-2.287 -21.275,-14.509 -18.988,-27.276c2.287,-12.766 14.508,-21.275 27.275,-18.988Z" style="fill:#afdde9;stroke:#75c8dd;stroke-width:4.17px;"/>
    <path d="M854.19,135.759c12.767,2.287 21.275,14.509 18.988,27.276c-2.287,12.767 -14.509,21.275 -27.276,18.988c-12.766,-2.287 -21.275,-14.509 -18.988,-27.276c2.287,-12.766 14.509,-21.275 27.276,-18.988Z" style="fill:#afdde9;stroke:#75c8dd;stroke-width:4.17px;"/>
    <path d="M914.516,133.759c12.767,2.287 21.275,14.509 18.988,27.276c-2.287,12.767 -14.508,21.275 -27.275,18.988c-12.767,-2.287 -21.275,-14.509 -18.988,-27.276c2.287,-12.766 14.508,-21.275 27.275,-18.988Z" style="fill:#afdde9;stroke:#75c8dd;stroke-width:4.17px;"/>
    <path d="M153.23,170.105l-33.75,-50.625l-33.75,50.625" style="fill:none;stroke:#000;stroke-width:25px;stroke-linejoin:miter;stroke-miterlimit:10;"/>
    <path d="M964.688,731.563l50.625,33.75l-50.625,33.75" style="fill:none;stroke:#000;stroke-width:25px;stroke-linejoin:miter;stroke-miterlimit:10;"/>
    <path d="M119.48,119.48l-0,645.833l895.833,0" style="fill:none;stroke:#000;stroke-width:25px;"/>
    <path d="M153.23,170.105l-33.75,-50.625l-33.75,50.625" style="fill:none;stroke:#000;stroke-width:25px;stroke-linejoin:miter;stroke-miterlimit:10;"/>
    <path d="M964.688,731.563l50.625,33.75l-50.625,33.75" style="fill:none;stroke:#000;stroke-width:25px;stroke-linejoin:miter;stroke-miterlimit:10;"/>
    <path d="M119.48,119.48l-0,645.833l895.833,0" style="fill:none;stroke:#000;stroke-width:25px;"/>
    <path d="M-335.52,59.98l738.833,-511.828" style="fill:none;stroke:#e35524;stroke-width:25px;"/>
    <path d="M540.614,825.571l11.621,-23.633l19.58,0l-19.873,35.254l20.41,35.84l-19.775,-0l-11.963,-24.072l-11.963,24.072l-19.726,-0l20.361,-35.84l-19.824,-35.254l19.531,0l11.621,23.633Z" style="fill-rule:nonzero;"/>
    <path d="M540.614,825.571l11.621,-23.633l19.58,0l-19.873,35.254l20.41,35.84l-19.775,-0l-11.963,-24.072l-11.963,24.072l-19.726,-0l20.361,-35.84l-19.824,-35.254l19.531,0l11.621,23.633Z" style="fill-rule:nonzero;"/>
    <path d="M48.459,457.797l13.086,-30.859l18.506,0l-22.901,45.557l0,25.537l-17.382,-0l-0,-25.537l-22.852,-45.557l18.408,0l13.135,30.859Z" style="fill-rule:nonzero;"/>
    <path d="M48.459,457.797l13.086,-30.859l18.506,0l-22.901,45.557l0,25.537l-17.382,-0l-0,-25.537l-22.852,-45.557l18.408,0l13.135,30.859Z" style="fill-rule:nonzero;"/>
    <g transform="matrix(4.16667,0,0,4.16667,-467.12,-365.915)">
        <g transform="matrix(24,0,0,24,180.455,332.853)">
            <path d="M0.21,-0.25l-0,0.25l-0.147,-0l0,-0.711l0.278,0c0.053,0 0.1,0.01 0.141,0.029c0.04,0.02 0.071,0.048 0.093,0.084c0.022,0.036 0.033,0.077 0.033,0.122c-0,0.07 -0.024,0.125 -0.072,0.165c-0.047,0.04 -0.113,0.061 -0.198,0.061l-0.128,-0Zm-0,-0.119l0.131,-0c0.039,-0 0.068,-0.009 0.088,-0.027c0.021,-0.019 0.031,-0.045 0.031,-0.079c-0,-0.034 -0.01,-0.063 -0.031,-0.084c-0.02,-0.022 -0.049,-0.033 -0.085,-0.033l-0.134,-0l-0,0.223Z" style="fill-rule:nonzero;"/>
        </g>
        <g transform="matrix(24,0,0,24,195.783,332.853)">
            <path d="M0.297,0.01c-0.077,-0 -0.14,-0.024 -0.189,-0.072c-0.049,-0.047 -0.073,-0.11 -0.073,-0.189l0,-0.014c0,-0.053 0.01,-0.101 0.031,-0.142c0.02,-0.042 0.049,-0.075 0.087,-0.097c0.038,-0.023 0.081,-0.034 0.129,-0.034c0.072,-0 0.129,0.023 0.17,0.068c0.042,0.046 0.063,0.11 0.063,0.194l-0,0.058l-0.337,-0c0.005,0.034 0.019,0.062 0.041,0.083c0.023,0.021 0.052,0.031 0.088,0.031c0.054,-0 0.096,-0.02 0.127,-0.059l0.069,0.078c-0.021,0.029 -0.049,0.053 -0.086,0.07c-0.036,0.016 -0.076,0.025 -0.12,0.025Zm-0.016,-0.434c-0.028,-0 -0.05,0.009 -0.068,0.028c-0.017,0.019 -0.028,0.046 -0.033,0.082l0.196,-0l-0,-0.012c-0.001,-0.031 -0.009,-0.055 -0.025,-0.073c-0.017,-0.017 -0.04,-0.025 -0.07,-0.025Z" style="fill-rule:nonzero;"/>
        </g>
        <g transform="matrix(24,0,0,24,208.756,332.853)">
            <path d="M0.36,-0c-0.006,-0.013 -0.011,-0.028 -0.014,-0.047c-0.034,0.038 -0.078,0.057 -0.133,0.057c-0.052,-0 -0.095,-0.015 -0.129,-0.045c-0.034,-0.03 -0.051,-0.068 -0.051,-0.113c0,-0.056 0.021,-0.099 0.062,-0.129c0.042,-0.03 0.102,-0.045 0.18,-0.046l0.065,0l0,-0.03c0,-0.024 -0.006,-0.044 -0.018,-0.059c-0.013,-0.014 -0.033,-0.022 -0.06,-0.022c-0.024,0 -0.042,0.006 -0.056,0.017c-0.013,0.012 -0.02,0.028 -0.02,0.047l-0.141,0c-0,-0.03 0.009,-0.059 0.028,-0.085c0.019,-0.026 0.046,-0.046 0.08,-0.061c0.035,-0.015 0.074,-0.022 0.117,-0.022c0.065,-0 0.116,0.016 0.155,0.049c0.038,0.033 0.057,0.079 0.057,0.138l-0,0.229c0,0.05 0.007,0.088 0.021,0.114l-0,0.008l-0.143,0Zm-0.116,-0.098c0.02,-0 0.04,-0.005 0.057,-0.014c0.018,-0.009 0.031,-0.022 0.039,-0.037l0,-0.091l-0.052,-0c-0.071,-0 -0.109,0.024 -0.113,0.073l-0.001,0.008c0,0.018 0.007,0.032 0.019,0.044c0.012,0.011 0.029,0.017 0.051,0.017Z" style="fill-rule:nonzero;"/>
        </g>
        <g transform="matrix(24,0,0,24,221.623,332.853)">
            <path d="M0.351,-0.396c-0.019,-0.003 -0.036,-0.004 -0.051,-0.004c-0.053,0 -0.088,0.018 -0.105,0.054l0,0.346l-0.141,-0l0,-0.528l0.133,-0l0.004,0.063c0.029,-0.049 0.068,-0.073 0.118,-0.073c0.016,-0 0.03,0.002 0.044,0.006l-0.002,0.136Z" style="fill-rule:nonzero;"/>
        </g>
        <g transform="matrix(24,0,0,24,230.377,332.853)">
            <path d="M0.34,-0.146c0,-0.017 -0.008,-0.031 -0.025,-0.041c-0.017,-0.01 -0.045,-0.019 -0.083,-0.026c-0.125,-0.027 -0.188,-0.08 -0.188,-0.161c-0,-0.046 0.019,-0.086 0.058,-0.117c0.039,-0.031 0.09,-0.047 0.153,-0.047c0.067,-0 0.121,0.016 0.161,0.047c0.04,0.032 0.06,0.073 0.06,0.123l-0.141,0c-0,-0.02 -0.007,-0.037 -0.02,-0.05c-0.013,-0.013 -0.033,-0.019 -0.061,-0.019c-0.023,-0 -0.042,0.005 -0.055,0.016c-0.013,0.01 -0.019,0.024 -0.019,0.041c-0,0.015 0.007,0.028 0.022,0.037c0.015,0.01 0.04,0.018 0.075,0.025c0.035,0.007 0.065,0.015 0.089,0.024c0.074,0.027 0.112,0.075 0.112,0.142c-0,0.048 -0.021,0.087 -0.062,0.117c-0.042,0.03 -0.095,0.045 -0.161,0.045c-0.044,-0 -0.083,-0.008 -0.118,-0.024c-0.034,-0.016 -0.061,-0.037 -0.08,-0.065c-0.02,-0.027 -0.03,-0.057 -0.03,-0.089l0.134,0c0.001,0.025 0.011,0.044 0.028,0.058c0.017,0.013 0.04,0.02 0.069,0.02c0.027,-0 0.048,-0.005 0.062,-0.016c0.013,-0.01 0.02,-0.023 0.02,-0.04Z" style="fill-rule:nonzero;"/>
        </g>
        <g transform="matrix(24,0,0,24,242.717,332.853)">
            <path d="M0.032,-0.269c0,-0.052 0.01,-0.099 0.031,-0.14c0.02,-0.041 0.049,-0.073 0.087,-0.095c0.038,-0.023 0.082,-0.034 0.132,-0.034c0.071,-0 0.129,0.022 0.174,0.065c0.045,0.044 0.071,0.103 0.076,0.178l0.001,0.036c-0,0.081 -0.023,0.146 -0.068,0.195c-0.045,0.049 -0.106,0.074 -0.182,0.074c-0.076,-0 -0.137,-0.025 -0.183,-0.073c-0.045,-0.049 -0.068,-0.116 -0.068,-0.2l0,-0.006Zm0.141,0.01c0,0.05 0.01,0.089 0.029,0.115c0.019,0.027 0.046,0.04 0.081,0.04c0.034,-0 0.061,-0.013 0.08,-0.039c0.019,-0.027 0.029,-0.069 0.029,-0.126c-0,-0.05 -0.01,-0.088 -0.029,-0.115c-0.019,-0.027 -0.046,-0.04 -0.081,-0.04c-0.035,-0 -0.061,0.013 -0.08,0.04c-0.019,0.027 -0.029,0.069 -0.029,0.125Z" style="fill-rule:nonzero;"/>
        </g>
        <g transform="matrix(24,0,0,24,256.287,332.853)">
            <path d="M0.184,-0.528l0.004,0.061c0.038,-0.047 0.089,-0.071 0.152,-0.071c0.056,-0 0.098,0.016 0.125,0.049c0.028,0.033 0.042,0.082 0.042,0.148l0,0.341l-0.141,0l0,-0.338c0,-0.03 -0.006,-0.052 -0.019,-0.065c-0.013,-0.014 -0.035,-0.02 -0.065,-0.02c-0.04,-0 -0.07,0.017 -0.09,0.05l0,0.373l-0.141,0l0,-0.528l0.133,-0Z" style="fill-rule:nonzero;"/>
        </g>
        <g transform="matrix(24,0,0,24,275.705,332.853)">
            <path d="M0.363,-0.396c-0.019,-0.003 -0.034,-0.005 -0.046,-0.005c-0.049,-0.001 -0.088,0.017 -0.117,0.055l-0.061,0.346l-0.138,-0l0.092,-0.528l0.13,-0.001l-0.013,0.065c0.033,-0.05 0.074,-0.075 0.123,-0.075c0.014,-0 0.03,0.002 0.048,0.007l-0.018,0.136Z" style="fill-rule:nonzero;"/>
        </g>
        <g transform="matrix(24,0,0,24,289.182,332.853)">
            <path d="M0.515,-0.353l-0.453,0l0.001,-0.126l0.452,-0l-0,0.126Zm-0,0.215l-0.453,-0l0.001,-0.127l0.452,-0l-0,0.127Z" style="fill-rule:nonzero;"/>
        </g>
        <g transform="matrix(24,0,0,24,308.096,332.853)">
            <path d="M0.148,-0.16c0.026,0 0.048,0.008 0.065,0.024c0.017,0.015 0.026,0.035 0.026,0.059c-0,0.024 -0.009,0.044 -0.026,0.059c-0.017,0.016 -0.039,0.023 -0.065,0.023c-0.026,0 -0.048,-0.007 -0.065,-0.023c-0.017,-0.016 -0.026,-0.035 -0.026,-0.059c0,-0.024 0.009,-0.044 0.026,-0.059c0.017,-0.016 0.039,-0.024 0.065,-0.024Z" style="fill-rule:nonzero;"/>
        </g>
        <g transform="matrix(24,0,0,24,315.35,332.853)">
            <path d="M0.053,-0.347l0.044,-0.364l0.415,0l0,0.128l-0.282,-0l-0.016,0.141c0.012,-0.007 0.027,-0.013 0.046,-0.018c0.02,-0.005 0.038,-0.008 0.056,-0.008c0.071,0 0.125,0.021 0.163,0.063c0.038,0.042 0.057,0.1 0.057,0.176c0,0.046 -0.01,0.087 -0.03,0.124c-0.021,0.037 -0.049,0.065 -0.086,0.085c-0.037,0.02 -0.08,0.03 -0.13,0.03c-0.045,-0 -0.087,-0.009 -0.126,-0.028c-0.039,-0.018 -0.07,-0.043 -0.092,-0.075c-0.022,-0.032 -0.033,-0.069 -0.032,-0.109l0.165,0c0.001,0.026 0.01,0.047 0.024,0.062c0.015,0.015 0.035,0.023 0.06,0.023c0.055,-0 0.083,-0.041 0.083,-0.123c-0,-0.076 -0.034,-0.114 -0.102,-0.114c-0.038,0 -0.067,0.013 -0.086,0.038l-0.131,-0.031Z" style="fill-rule:nonzero;"/>
        </g>
        <g transform="matrix(24,0,0,24,329.248,332.853)">
            <path d="M0.54,-0l-0.497,-0l0,-0.107l0.229,-0.241c0.056,-0.064 0.084,-0.115 0.084,-0.152c0,-0.031 -0.006,-0.054 -0.02,-0.07c-0.013,-0.016 -0.032,-0.024 -0.058,-0.024c-0.025,-0 -0.045,0.01 -0.061,0.032c-0.015,0.021 -0.023,0.048 -0.023,0.08l-0.165,-0c-0,-0.044 0.011,-0.084 0.033,-0.121c0.021,-0.037 0.052,-0.066 0.09,-0.087c0.039,-0.021 0.082,-0.031 0.13,-0.031c0.077,-0 0.136,0.018 0.178,0.053c0.041,0.036 0.062,0.086 0.062,0.153c-0,0.028 -0.005,0.055 -0.016,0.082c-0.01,0.026 -0.026,0.054 -0.048,0.083c-0.022,0.029 -0.058,0.068 -0.106,0.117l-0.092,0.106l0.28,0l-0,0.127Z" style="fill-rule:nonzero;"/>
        </g>
        <g transform="matrix(24,0,0,24,141.432,356.853)">
            <path d="M0.432,-0.187c0,-0.027 -0.01,-0.048 -0.029,-0.063c-0.02,-0.015 -0.055,-0.031 -0.106,-0.047c-0.05,-0.017 -0.091,-0.033 -0.12,-0.049c-0.081,-0.043 -0.121,-0.102 -0.121,-0.176c-0,-0.038 0.01,-0.073 0.032,-0.103c0.022,-0.03 0.053,-0.053 0.093,-0.07c0.041,-0.017 0.086,-0.026 0.137,-0.026c0.051,0 0.096,0.009 0.136,0.028c0.039,0.018 0.07,0.044 0.092,0.078c0.022,0.033 0.033,0.071 0.033,0.114l-0.146,0c-0,-0.033 -0.011,-0.058 -0.031,-0.076c-0.021,-0.018 -0.049,-0.027 -0.087,-0.027c-0.035,-0 -0.063,0.008 -0.083,0.023c-0.02,0.015 -0.03,0.035 -0.03,0.06c0,0.023 0.012,0.042 0.035,0.058c0.023,0.015 0.058,0.03 0.103,0.044c0.083,0.025 0.144,0.056 0.182,0.093c0.038,0.037 0.057,0.083 0.057,0.139c0,0.061 -0.023,0.109 -0.07,0.144c-0.046,0.035 -0.109,0.053 -0.188,0.053c-0.054,-0 -0.104,-0.01 -0.149,-0.03c-0.045,-0.02 -0.079,-0.048 -0.103,-0.083c-0.024,-0.034 -0.035,-0.075 -0.035,-0.121l0.147,0c-0,0.079 0.047,0.118 0.14,0.118c0.035,0 0.062,-0.007 0.082,-0.021c0.019,-0.014 0.029,-0.034 0.029,-0.06Z" style="fill-rule:nonzero;"/>
        </g>
        <g transform="matrix(24,0,0,24,156.186,356.853)">
            <path d="M0.53,-0.259c-0,0.081 -0.019,0.146 -0.056,0.195c-0.037,0.049 -0.086,0.074 -0.149,0.074c-0.054,-0 -0.097,-0.019 -0.13,-0.056l0,0.249l-0.141,0l0,-0.731l0.131,-0l0.005,0.051c0.034,-0.041 0.079,-0.061 0.134,-0.061c0.065,-0 0.115,0.024 0.152,0.072c0.036,0.048 0.054,0.115 0.054,0.199l-0,0.008Zm-0.141,-0.011c-0,-0.049 -0.009,-0.087 -0.026,-0.113c-0.018,-0.027 -0.043,-0.04 -0.076,-0.04c-0.045,-0 -0.075,0.017 -0.092,0.05l0,0.217c0.018,0.035 0.048,0.052 0.093,0.052c0.067,-0 0.101,-0.055 0.101,-0.166Z" style="fill-rule:nonzero;"/>
        </g>
        <g transform="matrix(24,0,0,24,169.697,356.853)">
            <path d="M0.297,0.01c-0.077,-0 -0.14,-0.024 -0.189,-0.072c-0.049,-0.047 -0.073,-0.11 -0.073,-0.189l0,-0.014c0,-0.053 0.01,-0.101 0.031,-0.142c0.02,-0.042 0.049,-0.075 0.087,-0.097c0.038,-0.023 0.081,-0.034 0.129,-0.034c0.072,-0 0.129,0.023 0.17,0.068c0.042,0.046 0.063,0.11 0.063,0.194l-0,0.058l-0.337,-0c0.005,0.034 0.019,0.062 0.041,0.083c0.023,0.021 0.052,0.031 0.088,0.031c0.054,-0 0.096,-0.02 0.127,-0.059l0.069,0.078c-0.021,0.029 -0.049,0.053 -0.086,0.07c-0.036,0.016 -0.076,0.025 -0.12,0.025Zm-0.016,-0.434c-0.028,-0 -0.05,0.009 -0.068,0.028c-0.017,0.019 -0.028,0.046 -0.033,0.082l0.196,-0l-0,-0.012c-0.001,-0.031 -0.009,-0.055 -0.025,-0.073c-0.017,-0.017 -0.04,-0.025 -0.07,-0.025Z" style="fill-rule:nonzero;"/>
        </g>
        <g transform="matrix(24,0,0,24,182.67,356.853)">
            <path d="M0.36,-0c-0.006,-0.013 -0.011,-0.028 -0.014,-0.047c-0.034,0.038 -0.078,0.057 -0.133,0.057c-0.052,-0 -0.095,-0.015 -0.129,-0.045c-0.034,-0.03 -0.051,-0.068 -0.051,-0.113c0,-0.056 0.021,-0.099 0.062,-0.129c0.042,-0.03 0.102,-0.045 0.18,-0.046l0.065,0l0,-0.03c0,-0.024 -0.006,-0.044 -0.018,-0.059c-0.013,-0.014 -0.033,-0.022 -0.06,-0.022c-0.024,0 -0.042,0.006 -0.056,0.017c-0.013,0.012 -0.02,0.028 -0.02,0.047l-0.141,0c-0,-0.03 0.009,-0.059 0.028,-0.085c0.019,-0.026 0.046,-0.046 0.08,-0.061c0.035,-0.015 0.074,-0.022 0.117,-0.022c0.065,-0 0.116,0.016 0.155,0.049c0.038,0.033 0.057,0.079 0.057,0.138l-0,0.229c0,0.05 0.007,0.088 0.021,0.114l-0,0.008l-0.143,0Zm-0.116,-0.098c0.02,-0 0.04,-0.005 0.057,-0.014c0.018,-0.009 0.031,-0.022 0.039,-0.037l0,-0.091l-0.052,-0c-0.071,-0 -0.109,0.024 -0.113,0.073l-0.001,0.008c0,0.018 0.007,0.032 0.019,0.044c0.012,0.011 0.029,0.017 0.051,0.017Z" style="fill-rule:nonzero;"/>
        </g>
        <g transform="matrix(24,0,0,24,195.537,356.853)">
            <path d="M0.351,-0.396c-0.019,-0.003 -0.036,-0.004 -0.051,-0.004c-0.053,0 -0.088,0.018 -0.105,0.054l0,0.346l-0.141,-0l0,-0.528l0.133,-0l0.004,0.063c0.029,-0.049 0.068,-0.073 0.118,-0.073c0.016,-0 0.03,0.002 0.044,0.006l-0.002,0.136Z" style="fill-rule:nonzero;"/>
        </g>
        <g transform="matrix(24,0,0,24,204.291,356.853)">
            <path d="M0.187,-0.528l0.004,0.059c0.037,-0.046 0.088,-0.069 0.152,-0.069c0.068,-0 0.115,0.027 0.14,0.08c0.037,-0.053 0.09,-0.08 0.159,-0.08c0.057,-0 0.1,0.017 0.128,0.05c0.028,0.033 0.042,0.084 0.042,0.151l-0,0.337l-0.142,0l-0,-0.337c-0,-0.03 -0.006,-0.052 -0.018,-0.066c-0.011,-0.013 -0.032,-0.02 -0.062,-0.02c-0.042,-0 -0.071,0.02 -0.088,0.06l0.001,0.363l-0.141,0l-0,-0.336c-0,-0.031 -0.006,-0.053 -0.018,-0.067c-0.012,-0.014 -0.033,-0.02 -0.062,-0.02c-0.04,-0 -0.069,0.016 -0.087,0.049l0,0.374l-0.141,0l0,-0.528l0.133,-0Z" style="fill-rule:nonzero;"/>
        </g>
        <g transform="matrix(24,0,0,24,225.068,356.853)">
            <path d="M0.36,-0c-0.006,-0.013 -0.011,-0.028 -0.014,-0.047c-0.034,0.038 -0.078,0.057 -0.133,0.057c-0.052,-0 -0.095,-0.015 -0.129,-0.045c-0.034,-0.03 -0.051,-0.068 -0.051,-0.113c0,-0.056 0.021,-0.099 0.062,-0.129c0.042,-0.03 0.102,-0.045 0.18,-0.046l0.065,0l0,-0.03c0,-0.024 -0.006,-0.044 -0.018,-0.059c-0.013,-0.014 -0.033,-0.022 -0.06,-0.022c-0.024,0 -0.042,0.006 -0.056,0.017c-0.013,0.012 -0.02,0.028 -0.02,0.047l-0.141,0c-0,-0.03 0.009,-0.059 0.028,-0.085c0.019,-0.026 0.046,-0.046 0.08,-0.061c0.035,-0.015 0.074,-0.022 0.117,-0.022c0.065,-0 0.116,0.016 0.155,0.049c0.038,0.033 0.057,0.079 0.057,0.138l-0,0.229c0,0.05 0.007,0.088 0.021,0.114l-0,0.008l-0.143,0Zm-0.116,-0.098c0.02,-0 0.04,-0.005 0.057,-0.014c0.018,-0.009 0.031,-0.022 0.039,-0.037l0,-0.091l-0.052,-0c-0.071,-0 -0.109,0.024 -0.113,0.073l-0.001,0.008c0,0.018 0.007,0.032 0.019,0.044c0.012,0.011 0.029,0.017 0.051,0.017Z" style="fill-rule:nonzero;"/>
        </g>
        <g transform="matrix(24,0,0,24,237.936,356.853)">
            <path d="M0.184,-0.528l0.004,0.061c0.038,-0.047 0.089,-0.071 0.152,-0.071c0.056,-0 0.098,0.016 0.125,0.049c0.028,0.033 0.042,0.082 0.042,0.148l0,0.341l-0.141,0l0,-0.338c0,-0.03 -0.006,-0.052 -0.019,-0.065c-0.013,-0.014 -0.035,-0.02 -0.065,-0.02c-0.04,-0 -0.07,0.017 -0.09,0.05l0,0.373l-0.141,0l0,-0.528l0.133,-0Z" style="fill-rule:nonzero;"/>
        </g>
        <g transform="matrix(24,0,0,24,250.439,356.853)">
            <path d="M0.134,-0.678l-0.014,0.197l-0.089,0l-0,-0.269l0.103,0l0,0.072Z" style="fill-rule:nonzero;"/>
        </g>
        <g transform="matrix(24,0,0,24,253.24,356.853)">
            <path d="M0.34,-0.146c0,-0.017 -0.008,-0.031 -0.025,-0.041c-0.017,-0.01 -0.045,-0.019 -0.083,-0.026c-0.125,-0.027 -0.188,-0.08 -0.188,-0.161c-0,-0.046 0.019,-0.086 0.058,-0.117c0.039,-0.031 0.09,-0.047 0.153,-0.047c0.067,-0 0.121,0.016 0.161,0.047c0.04,0.032 0.06,0.073 0.06,0.123l-0.141,0c-0,-0.02 -0.007,-0.037 -0.02,-0.05c-0.013,-0.013 -0.033,-0.019 -0.061,-0.019c-0.023,-0 -0.042,0.005 -0.055,0.016c-0.013,0.01 -0.019,0.024 -0.019,0.041c-0,0.015 0.007,0.028 0.022,0.037c0.015,0.01 0.04,0.018 0.075,0.025c0.035,0.007 0.065,0.015 0.089,0.024c0.074,0.027 0.112,0.075 0.112,0.142c-0,0.048 -0.021,0.087 -0.062,0.117c-0.042,0.03 -0.095,0.045 -0.161,0.045c-0.044,-0 -0.083,-0.008 -0.118,-0.024c-0.034,-0.016 -0.061,-0.037 -0.08,-0.065c-0.02,-0.027 -0.03,-0.057 -0.03,-0.089l0.134,0c0.001,0.025 0.011,0.044 0.028,0.058c0.017,0.013 0.04,0.02 0.069,0.02c0.027,-0 0.048,-0.005 0.062,-0.016c0.013,-0.01 0.02,-0.023 0.02,-0.04Z" style="fill-rule:nonzero;"/>
        </g>
        <g transform="matrix(24,0,0,24,271.557,356.853)">
            <path d="M0.296,-0.538c0.073,-0 0.13,0.025 0.172,0.075c0.041,0.049 0.062,0.118 0.062,0.207l0,0.006c0,0.081 -0.018,0.144 -0.055,0.19c-0.037,0.047 -0.087,0.07 -0.149,0.07c-0.053,-0 -0.097,-0.02 -0.13,-0.059l0,0.252l-0.141,0l0,-0.48c0,-0.08 0.022,-0.143 0.066,-0.19c0.044,-0.047 0.102,-0.071 0.175,-0.071Zm-0.1,0.389c0.019,0.03 0.049,0.045 0.093,0.045c0.032,-0 0.057,-0.012 0.074,-0.037c0.018,-0.024 0.026,-0.064 0.026,-0.12c0,-0.052 -0.009,-0.093 -0.026,-0.121c-0.017,-0.028 -0.042,-0.042 -0.074,-0.042c-0.029,-0 -0.052,0.013 -0.068,0.04c-0.016,0.027 -0.025,0.066 -0.025,0.117l0,0.118Z" style="fill-rule:nonzero;"/>
        </g>
        <g transform="matrix(24,0,0,24,290.002,356.853)">
            <path d="M0.503,-0.364l-0.437,-0l0,-0.115l0.437,-0l-0,0.115Zm-0,0.211l-0.437,0l0,-0.115l0.437,-0l-0,0.115Z" style="fill-rule:nonzero;"/>
        </g>
        <g transform="matrix(24,0,0,24,308.635,356.853)">
            <path d="M0.391,-0l-0.141,-0l0,-0.544l-0.168,0.052l-0,-0.114l0.294,-0.106l0.015,0l0,0.712Z" style="fill-rule:nonzero;"/>
        </g>
        <g transform="matrix(24,0,0,24,322.404,356.853)">
            <path d="M0.527,-0.294c-0,0.098 -0.02,0.174 -0.061,0.226c-0.041,0.052 -0.1,0.078 -0.179,0.078c-0.077,-0 -0.137,-0.026 -0.178,-0.077c-0.041,-0.051 -0.062,-0.124 -0.063,-0.22l0,-0.13c0,-0.1 0.021,-0.175 0.062,-0.227c0.041,-0.051 0.101,-0.077 0.178,-0.077c0.078,0 0.137,0.026 0.178,0.077c0.041,0.051 0.062,0.124 0.063,0.219l-0,0.131Zm-0.141,-0.144c-0,-0.059 -0.008,-0.102 -0.024,-0.129c-0.017,-0.026 -0.042,-0.04 -0.076,-0.04c-0.033,0 -0.058,0.013 -0.073,0.038c-0.016,0.026 -0.025,0.066 -0.025,0.12l-0,0.173c-0,0.058 0.007,0.102 0.023,0.13c0.016,0.028 0.041,0.042 0.076,0.042c0.035,-0 0.06,-0.014 0.075,-0.041c0.015,-0.027 0.023,-0.068 0.024,-0.124l-0,-0.169Z" style="fill:#fff;fill-rule:nonzero;"/>
        </g>
        <g transform="matrix(24,0,0,24,336.174,356.853)">
            <path d="M0.062,-0.069c-0,-0.023 0.007,-0.041 0.022,-0.055c0.015,-0.014 0.034,-0.021 0.057,-0.021c0.023,-0 0.042,0.007 0.057,0.021c0.016,0.014 0.023,0.032 0.023,0.055c0,0.022 -0.007,0.04 -0.022,0.054c-0.015,0.013 -0.034,0.02 -0.058,0.02c-0.023,0 -0.042,-0.007 -0.057,-0.02c-0.015,-0.014 -0.022,-0.032 -0.022,-0.054Z" style="fill:#fff;fill-rule:nonzero;"/>
        </g>
    </g>
</svg>
